HIERARCHY
ROOT hip
{
  OFFSET 55.8943 87.9232 207.222
  CHANNELS 6 Xposition Yposition Zposition Zrotation Xrotation Yrotation
  JOINT abdomen
  {
    OFFSET 0 20.6881 -0.73152
    CHANNELS 3 Zrotation Xrotation Yrotation
    JOINT chest
    {
      OFFSET 0 11.7043 -0.48768
      CHANNELS 3 Zrotation Xrotation Yrotation
      JOINT neck
      {
        OFFSET 0 22.1894 -2.19456
        CHANNELS 3 Zrotation Xrotation Yrotation
        JOINT head
        {
          OFFSET -0.24384 7.07133 1.2192
          CHANNELS 3 Zrotation Xrotation Yrotation
          JOINT leftEye
          {
            OFFSET 4.14528 8.04674 8.04672
            CHANNELS 3 Zrotation Xrotation Yrotation
            End Site
            {
              OFFSET 1 0 0
            }
          }
          JOINT rightEye
          {
            OFFSET -3.6576 8.04674 8.04672
            CHANNELS 3 Zrotation Xrotation Yrotation
            End Site
            {
              OFFSET 1 0 0
            }
          }
        }
      }
      JOINT rCollar
      {
        OFFSET -2.68224 19.2634 -4.8768
        CHANNELS 3 Zrotation Xrotation Yrotation
        JOINT rShldr
        {
          OFFSET -8.77824 -1.95073 1.46304
          CHANNELS 3 Zrotation Xrotation Yrotation
          JOINT rForeArm
          {
            OFFSET -28.1742 -1.7115 0.48768
            CHANNELS 3 Zrotation Xrotation Yrotation
            JOINT rHand
            {
              OFFSET -22.5879 0.773209 7.07136
              CHANNELS 3 Zrotation Xrotation Yrotation
              JOINT rThumb1
              {
                OFFSET -1.2192 -0.487915 3.41376
                CHANNELS 3 Zrotation Xrotation Yrotation
                JOINT rThumb2
                {
                  OFFSET -3.37035 -0.52449 3.41376
                  CHANNELS 3 Zrotation Xrotation Yrotation
                  End Site
                  {
                    OFFSET -1.78271 -1.18214 1.43049
                  }
                }
              }
              JOINT rIndex1
              {
                OFFSET -7.75947 0.938293 5.60832
                CHANNELS 3 Zrotation Xrotation Yrotation
                JOINT rIndex2
                {
                  OFFSET -2.54057 -0.884171 1.56538
                  CHANNELS 3 Zrotation Xrotation Yrotation
                  End Site
                  {
                    OFFSET -1.62519 -0.234802 1.16502
                  }
                }
              }
              JOINT rMid1
              {
                OFFSET -8.24714 1.18213 3.41376
                CHANNELS 3 Zrotation Xrotation Yrotation
                JOINT rMid2
                {
                  OFFSET -3.10165 -0.590103 1.0647
                  CHANNELS 3 Zrotation Xrotation Yrotation
                  End Site
                  {
                    OFFSET -2.48547 -0.328903 0.83742
                  }
                }
              }
              JOINT rRing1
              {
                OFFSET -8.82822 0.546677 1.51678
                CHANNELS 3 Zrotation Xrotation Yrotation
                JOINT rRing2
                {
                  OFFSET -2.60934 -0.819778 -0.0198488
                  CHANNELS 3 Zrotation Xrotation Yrotation
                  End Site
                  {
                    OFFSET -2.33842 -0.294052 0.168128
                  }
                }
              }
              JOINT rPinky1
              {
                OFFSET -8.27202 -0.0477905 -0.4584
                CHANNELS 3 Zrotation Xrotation Yrotation
                JOINT rPinky2
                {
                  OFFSET -1.82734 -0.647385 -0.700984
                  CHANNELS 3 Zrotation Xrotation Yrotation
                  End Site
                  {
                    OFFSET -1.69225 -0.51767 -0.607171
                  }
                }
              }
            }
          }
        }
      }
      JOINT lCollar
      {
        OFFSET 2.68224 19.2634 -4.8768
        CHANNELS 3 Zrotation Xrotation Yrotation
        JOINT lShldr
        {
          OFFSET 8.77824 -1.95073 1.46304
          CHANNELS 3 Zrotation Xrotation Yrotation
          JOINT lForeArm
          {
            OFFSET 28.1742 -1.7115 0.48768
            CHANNELS 3 Zrotation Xrotation Yrotation
            JOINT lHand
            {
              OFFSET 22.5879 0.773209 7.07136
              CHANNELS 3 Zrotation Xrotation Yrotation
              JOINT lThumb1
              {
                OFFSET 1.2192 -0.487915 3.41376
                CHANNELS 3 Zrotation Xrotation Yrotation
                JOINT lThumb2
                {
                  OFFSET 3.37035 -0.52449 3.41376
                  CHANNELS 3 Zrotation Xrotation Yrotation
                  End Site
                  {
                    OFFSET 1.78271 -1.18214 1.43049
                  }
                }
              }
              JOINT lIndex1
              {
                OFFSET 7.75947 0.938293 5.60832
                CHANNELS 3 Zrotation Xrotation Yrotation
                JOINT lIndex2
                {
                  OFFSET 2.54057 -0.884171 1.56538
                  CHANNELS 3 Zrotation Xrotation Yrotation
                  End Site
                  {
                    OFFSET 1.62519 -0.234802 1.16502
                  }
                }
              }
              JOINT lMid1
              {
                OFFSET 8.24714 1.18213 3.41376
                CHANNELS 3 Zrotation Xrotation Yrotation
                JOINT lMid2
                {
                  OFFSET 3.10165 -0.590103 1.0647
                  CHANNELS 3 Zrotation Xrotation Yrotation
                  End Site
                  {
                    OFFSET 2.48547 -0.328903 0.83742
                  }
                }
              }
              JOINT lRing1
              {
                OFFSET 8.82822 0.546677 1.51678
                CHANNELS 3 Zrotation Xrotation Yrotation
                JOINT lRing2
                {
                  OFFSET 2.60934 -0.819778 -0.0198488
                  CHANNELS 3 Zrotation Xrotation Yrotation
                  End Site
                  {
                    OFFSET 2.33842 -0.294052 0.168128
                  }
                }
              }
              JOINT lPinky1
              {
                OFFSET 8.27202 -0.0477905 -0.4584
                CHANNELS 3 Zrotation Xrotation Yrotation
                JOINT lPinky2
                {
                  OFFSET 1.82734 -0.647385 -0.700984
                  CHANNELS 3 Zrotation Xrotation Yrotation
                  End Site
                  {
                    OFFSET 1.69225 -0.51767 -0.607171
                  }
                }
              }
            }
          }
        }
      }
    }
  }
  JOINT rButtock
  {
    OFFSET -8.77824 4.35084 1.2192
    CHANNELS 3 Zrotation Xrotation Yrotation
    JOINT rThigh
    {
      OFFSET 0 -1.70687 -2.19456
      CHANNELS 3 Zrotation Xrotation Yrotation
      JOINT rShin
      {
        OFFSET 0 -36.8199 0.73152
        CHANNELS 3 Zrotation Xrotation Yrotation
        JOINT rFoot
        {
          OFFSET 0.73152 -45.1104 -5.12064
          CHANNELS 3 Zrotation Xrotation Yrotation
          End Site
          {
            OFFSET -1.1221 -3.69964 12.103
          }
        }
      }
    }
  }
  JOINT lButtock
  {
    OFFSET 8.77824 4.35084 1.2192
    CHANNELS 3 Zrotation Xrotation Yrotation
    JOINT lThigh
    {
      OFFSET 0 -1.70687 -2.19456
      CHANNELS 3 Zrotation Xrotation Yrotation
      JOINT lShin
      {
        OFFSET 0 -36.8199 0.73152
        CHANNELS 3 Zrotation Xrotation Yrotation
        JOINT lFoot
        {
          OFFSET -0.73152 -45.1104 -5.12064
          CHANNELS 3 Zrotation Xrotation Yrotation
          End Site
          {
            OFFSET 1.1221 -3.69964 12.103
          }
        }
      }
    }
  }
}
MOTION
Frames:	7
Frame Time:	0.00833333
45.8473 81.934 -13.6694 -7.39457 11.8813 -7.31211 8.71396 -4.81343 11.7901 3.54533 3.48299 3.18078 -14.8771 -3.93693 -6.53051 20.0148 -9.54069 -6.1896 -0 0 0 -0 0 0 1.74564e-013 -2.49276e-013 1.93725e-013 19.3605 41.3246 56.5992 -20.2596 -13.3415 39.3149 -0.635611 -22.0473 -3.26281 -2.82143e-010 1.34414e-009 -3.88949e-010 -4.78771e-010 2.34412e-009 -6.80218e-010 -2.82143e-010 1.34414e-009 -3.88957e-010 7.73091 5.47488 0.417314 -2.82142e-010 1.34414e-009 -3.88955e-010 2.90554 0.965183 0.102902 -2.82132e-010 1.34414e-009 -3.88947e-010 10.2786 0.731801 0.0259123 -2.82146e-010 1.34414e-009 -3.88941e-010 2.22167 -0.733487 -0.20892 1.74525e-013 -2.49277e-013 1.93622e-013 -71.8526 -1.34813 36.6628 5.74531 -1.93141 -10.0306 1.3558 31.2244 -4.88115 1.90971e-010 4.98894e-010 -9.45611e-010 3.07068e-010 8.9688e-010 -1.62687e-009 1.90957e-010 4.98897e-010 -9.45601e-010 -7.73091 5.47488 -0.417314 1.90969e-010 4.98893e-010 -9.45604e-010 -2.90554 0.965183 -0.102902 1.9096e-010 4.98893e-010 -9.4561e-010 -10.2786 0.731801 -0.0259123 1.90977e-010 4.98893e-010 -9.45623e-010 -2.22167 -0.733487 0.20892 -2.03217e-016 0 -3.88251e-019 8.46975 14.7386 5.26093 0.0656738 5.99367 0.616257 -0.50482 -0.446639 0.806376 2.03217e-016 0 3.88251e-019 17.5942 -53.2201 11.3827 0.106656 28.7569 -0.981485 1.37602 -7.21834 4.52588 
45.8955 81.6236 -11.8214 -7.60852 12.0524 -6.98652 9.05769 -5.3221 11.9144 3.38226 3.62224 3.20112 -15.1346 -3.85472 -6.68748 20.4188 -9.66911 -6.37884 -0 0 0 -0 0 0 2.87575e-013 -2.6011e-013 1.5979e-013 19.3692 41.109 56.4963 -20.275 -13.3614 39.352 -0.651007 -22.2941 -3.30336 -8.0246e-010 -1.5552e-009 3.31229e-010 -1.3927e-009 -2.63901e-009 5.57978e-010 -8.02461e-010 -1.55521e-009 3.31222e-010 7.73091 5.47488 0.417314 -8.02459e-010 -1.5552e-009 3.31225e-010 2.90554 0.965183 0.102902 -8.0245e-010 -1.5552e-009 3.31234e-010 10.2786 0.731801 0.0259123 -8.02468e-010 -1.5552e-009 3.31243e-010 2.22167 -0.733487 -0.20892 2.87464e-013 -2.6011e-013 1.59666e-013 -69.5777 -3.79606 37.4089 5.54557 -1.84515 -9.67431 1.64241 33.885 -5.4114 -1.32661e-009 2.91435e-009 -1.90338e-009 -2.33727e-009 5.0762e-009 -3.24332e-009 -1.32663e-009 2.91436e-009 -1.90337e-009 -7.73091 5.47488 -0.417314 -1.32661e-009 2.91435e-009 -1.90337e-009 -2.90554 0.965183 -0.102902 -1.32662e-009 2.91435e-009 -1.90338e-009 -10.2786 0.731801 -0.0259123 -1.3266e-009 2.91435e-009 -1.90339e-009 -2.22167 -0.733487 0.20892 -2.03217e-016 0 -3.88251e-019 8.43229 15.3623 4.98802 0.0709821 6.23003 0.667295 -0.53386 0.99363 0.587653 2.03217e-016 0 3.88251e-019 17.8236 -54.3639 11.8301 0.132819 31.2456 -1.02754 1.07073 -3.94463 3.99578 
46.1853 81.3454 -10.0838 -7.62591 12.1437 -6.71118 9.05748 -5.71919 11.9916 3.35033 3.60824 3.21277 -15.3472 -3.70952 -6.80973 20.7561 -9.77275 -6.54088 -0 0 0 -0 0 0 3.28881e-013 -2.54445e-013 1.28067e-013 19.5828 41.0983 56.2063 -20.2917 -13.383 39.3927 -0.657395 -22.3949 -3.31997 -1.02944e-009 -3.0175e-009 7.01389e-010 -1.79261e-009 -5.15472e-009 1.19528e-009 -1.02945e-009 -3.01751e-009 7.01382e-010 7.73091 5.47488 0.417314 -1.02944e-009 -3.0175e-009 7.01385e-010 2.90554 0.965183 0.102902 -1.02943e-009 -3.01751e-009 7.01394e-010 10.2786 0.731801 0.0259123 -1.02945e-009 -3.01751e-009 7.01405e-010 2.22167 -0.733487 -0.20892 3.28721e-013 -2.54445e-013 1.27918e-013 -67.489 -5.97272 38.15 5.35454 -1.76371 -9.33452 1.94314 36.2928 -5.92406 -2.11591e-009 4.06837e-009 -2.27901e-009 -3.70868e-009 7.06798e-009 -3.8739e-009 -2.11593e-009 4.06838e-009 -2.27901e-009 -7.73091 5.47488 -0.417314 -2.11592e-009 4.06837e-009 -2.27901e-009 -2.90554 0.965183 -0.102902 -2.11592e-009 4.06837e-009 -2.27902e-009 -10.2786 0.731801 -0.0259123 -2.11591e-009 4.06837e-009 -2.27903e-009 -2.22167 -0.733487 0.20892 -2.03217e-016 0 -3.88251e-019 8.24422 15.6897 4.69455 0.0757423 7.03166 0.714066 -0.565839 2.63597 0.136106 2.03217e-016 0 3.88251e-019 17.8705 -55.347 12.2556 0.168611 33.6502 -1.05998 0.859315 -1.35058 3.54546 
46.2812 80.9087 -8.382 -7.43569 12.1272 -6.4945 8.64228 -5.97932 12.0141 3.50644 3.3547 3.21493 -15.5032 -3.4275 -6.88243 21.0321 -9.86783 -6.66607 -0 0 0 -0 0 0 2.54024e-013 -2.20812e-013 9.81561e-014 20.0776 41.3853 55.643 -20.3218 -13.4218 39.4674 -0.650772 -22.2901 -3.3027 -7.92263e-010 -2.20102e-009 5.19905e-010 -1.37919e-009 -3.75772e-009 8.85627e-010 -7.92264e-010 -2.20103e-009 5.19902e-010 7.73091 5.47488 0.417314 -7.92263e-010 -2.20102e-009 5.19901e-010 2.90554 0.965183 0.102902 -7.92253e-010 -2.20102e-009 5.19909e-010 10.2786 0.731801 0.0259123 -7.92272e-010 -2.20102e-009 5.19918e-010 2.22167 -0.733487 -0.20892 2.53844e-013 -2.20815e-013 9.7971e-014 -65.593 -7.88702 38.9186 5.16696 -1.68519 -9.00131 2.24376 38.4803 -6.41485 -1.77568e-009 3.22616e-009 -1.70265e-009 -3.10407e-009 5.59587e-009 -2.89107e-009 -1.77569e-009 3.22617e-009 -1.70265e-009 -7.73091 5.47488 -0.417314 -1.77568e-009 3.22616e-009 -1.70265e-009 -2.90554 0.965183 -0.102902 -1.77569e-009 3.22616e-009 -1.70265e-009 -10.2786 0.731801 -0.0259123 -1.77567e-009 3.22616e-009 -1.70267e-009 -2.22167 -0.733487 0.20892 -2.03217e-016 0 -3.88251e-019 7.91021 15.748 4.45128 0.0845131 8.43309 0.763005 -0.570761 4.55697 -0.72879 2.03217e-016 0 3.88251e-019 17.7952 -56.1813 12.712 0.21225 36.0305 -1.07373 0.720799 0.4551 3.20345 
46.4097 80.5306 -6.55214 -7.09352 12.0405 -6.29764 7.93598 -6.15593 11.9864 3.78444 2.94257 3.20655 -15.6337 -3.04328 -6.9228 21.2955 -9.9777 -6.76047 -0 0 0 -0 0 0 1.02071e-013 -1.59323e-013 6.40646e-014 20.8106 41.8923 54.844 -20.357 -13.4672 39.5551 -0.635626 -22.0466 -3.26271 -2.69969e-010 -4.31482e-011 1.94479e-011 -4.66636e-010 -5.82305e-011 2.87932e-011 -2.6997e-010 -4.3152e-011 1.94501e-011 7.73091 5.47488 0.417314 -2.6997e-010 -4.31427e-011 1.94419e-011 2.90554 0.965183 0.102902 -2.6996e-010 -4.31485e-011 1.94488e-011 10.2786 0.731801 0.0259123 -2.69975e-010 -4.31483e-011 1.94546e-011 2.22167 -0.733487 -0.20892 1.01889e-013 -1.5933e-013 6.38316e-014 -63.8258 -9.62394 39.6836 4.98403 -1.61017 -8.67653 2.54782 40.5211 -6.89697 -7.7091e-010 1.15598e-009 -4.8904e-010 -1.33514e-009 1.99123e-009 -8.26337e-010 -7.7092e-010 1.15598e-009 -4.89023e-010 -7.73091 5.47488 -0.417314 -7.7091e-010 1.15598e-009 -4.89032e-010 -2.90554 0.965183 -0.102902 -7.7092e-010 1.15598e-009 -4.89036e-010 -10.2786 0.731801 -0.0259123 -7.70906e-010 1.15598e-009 -4.89046e-010 -2.22167 -0.733487 0.20892 -2.03217e-016 0 -3.88251e-019 7.46874 15.5763 4.21824 0.0936753 10.3105 0.816142 -0.499169 6.70013 -1.91135 2.03217e-016 0 3.88251e-019 17.5829 -56.9462 13.1039 0.259911 38.4487 -1.0725 0.617607 1.86706 3.00225 
46.6441 80.189 -4.86787 -6.57818 11.9187 -6.13165 7.00129 -6.26692 11.9202 4.10589 2.5053 3.19042 -15.7416 -2.69704 -6.95162 21.499 -10.0486 -6.84098 -0 0 0 -0 0 0 -5.6249e-014 -9.56976e-014 3.11874e-014 21.665 42.4585 53.9514 -20.3763 -13.4921 39.603 -0.617496 -21.7484 -3.21398 2.87356e-010 2.26524e-009 -5.2083e-010 5.07285e-010 3.89949e-009 -8.96421e-010 2.87358e-010 2.26524e-009 -5.20823e-010 7.73091 5.47488 0.417314 2.87355e-010 2.26525e-009 -5.20838e-010 2.90554 0.965183 0.102902 2.87366e-010 2.26524e-009 -5.20833e-010 10.2786 0.731801 0.0259123 2.87354e-010 2.26524e-009 -5.2083e-010 2.22167 -0.733487 -0.20892 -5.64221e-014 -9.57086e-014 3.09114e-014 -62.2752 -11.1399 40.3249 4.81735 -1.54269 -8.38118 2.83918 42.2907 -7.34102 3.44311e-010 -1.06509e-009 7.65676e-010 6.24911e-010 -1.87266e-009 1.30697e-009 3.44302e-010 -1.06508e-009 7.65704e-010 -7.73091 5.47488 -0.417314 3.44311e-010 -1.06509e-009 7.65685e-010 -2.90554 0.965183 -0.102902 3.443e-010 -1.06509e-009 7.65683e-010 -10.2786 0.731801 -0.0259123 3.44311e-010 -1.06508e-009 7.65676e-010 -2.22167 -0.733487 0.20892 -2.03217e-016 0 -3.88251e-019 6.86284 15.0826 3.87002 0.0909568 12.679 0.860077 -0.344255 8.92951 -3.09253 2.03217e-016 0 3.88251e-019 17.0732 -57.5582 13.3499 0.30896 40.7241 -1.0594 0.539155 2.82713 2.82405 
46.9301 79.8845 -3.20763 -5.8691 11.7972 -6.00742 5.90122 -6.33008 11.8272 4.3925 2.17633 3.16911 -15.83 -2.52899 -6.98924 21.5957 -10.0267 -6.9245 -0 0 0 -0 0 0 -1.50209e-013 -5.56535e-014 4.91992e-015 22.5107 42.9269 53.1186 -20.3586 -13.4697 39.5579 -0.601454 -21.4797 -3.17024 6.29635e-010 3.53325e-009 -8.21779e-010 1.1048e-009 6.07119e-009 -1.41121e-009 6.29638e-010 3.53325e-009 -8.21769e-010 7.73091 5.47488 0.417314 6.29634e-010 3.53326e-009 -8.21785e-010 2.90554 0.965183 0.102902 6.29644e-010 3.53325e-009 -8.21783e-010 10.2786 0.731801 0.0259123 6.29635e-010 3.53325e-009 -8.21782e-010 2.22167 -0.733487 -0.20892 -1.50363e-013 -5.56671e-014 4.62174e-015 -61.0419 -12.4022 40.7163 4.67864 -1.48679 -8.13623 3.09242 43.6655 -7.70901 1.01591e-009 -2.35994e-009 1.46534e-009 1.80291e-009 -4.12255e-009 2.49549e-009 1.0159e-009 -2.35994e-009 1.46537e-009 -7.73091 5.47488 -0.417314 1.01591e-009 -2.35994e-009 1.46535e-009 -2.90554 0.965183 -0.102902 1.0159e-009 -2.35994e-009 1.46535e-009 -10.2786 0.731801 -0.0259123 1.01591e-009 -2.35994e-009 1.46534e-009 -2.22167 -0.733487 0.20892 -2.03217e-016 0 -3.88251e-019 6.02612 14.1734 3.28405 0.0666256 15.5537 0.881235 -0.158634 11.114 -3.9463 2.03217e-016 0 3.88251e-019 16.0995 -57.9339 13.3631 0.357766 42.6761 -1.03758 0.484614 3.27766 2.55159 
